<svg xmlns="http://www.w3.org/2000/svg" viewBox="0 0 600 400">
    <defs>
    <linearGradient id="g2" x1="0" y1="0" x2="1" y2="1">
      <stop offset="0%" stop-color="#2e8b57"/>
      <stop offset="100%" stop-color="#0b3c5d"/>
    </linearGradient>
  </defs>
  <rect width="100%" height="100%" fill="url(#g2)"/>
  <path d="M0 250 Q 150 200 300 250 T 600 250 V400 H0 Z" fill="#F5F7FA" opacity="0.08"/>
  <path d="M0 300 Q 150 260 300 300 T 600 300 V400 H0 Z" fill="#F5F7FA" opacity="0.12"/>
    <g transform="translate(300,190) scale(1.1)" fill="#ffffff" opacity="0.9">
    <path d="M -40 0 C -40 -22 -10 -35 25 -35 C 55 -35 80 -18 95 0 C 80 18 55 35 25 35 C -10 35 -40 22 -40 0 Z"/>
    <polygon points="95,0 120,-18 120,18"/>
    <circle cx="-15" cy="-6" r="5" fill="#F5F7FA"/>
    <path d="M -40 0 C -55 -10 -65 -5 -75 0 C -65 5 -55 10 -40 0 Z" opacity="0.7"/>
  </g>
    <text x="300" y="376" text-anchor="middle" font-family="Sarabun, sans-serif" font-size="20" fill="#ffffff" opacity="0.85">เลือกอาหารปลาให้เหมาะกับวัย</text>
  </svg>